<svg id="Favicon_SIAKAD" data-name="Favicon SIAKAD" xmlns="http://www.w3.org/2000/svg" xmlns:xlink="http://www.w3.org/1999/xlink" viewBox="0 0 512 512"><defs><style>.cls-1{fill:url(#linear-gradient);}.cls-2{fill:#fff;}</style><linearGradient id="linear-gradient" x1="255.98" y1="511.98" x2="255.98" y2="-0.02" gradientUnits="userSpaceOnUse"><stop offset="0" stop-color="#004782"/><stop offset="0.05" stop-color="#015692"/><stop offset="0.13" stop-color="#036aa8"/><stop offset="0.23" stop-color="#0479b9"/><stop offset="0.35" stop-color="#0584c4"/><stop offset="0.52" stop-color="#068acb"/><stop offset="1" stop-color="#068ccd"/></linearGradient></defs><rect class="cls-1" x="-0.02" y="-0.02" width="512" height="512" rx="111.5"/><path class="cls-2" d="M256,21A234,234,0,0,0,129.26,58q2.16,1.51,4.23,3.15A211.78,211.78,0,0,1,241.11,32c117.54,0,212.83,95.28,212.83,212.83S358.65,457.64,241.11,457.64,28.28,362.35,28.28,244.81A213.08,213.08,0,0,1,35,191.6q-2.13-1.53-4.17-3.2A235.13,235.13,0,0,0,20.94,256c0,129.82,105.24,235.07,235.06,235.07S491.06,385.84,491.06,256,385.82,21,256,21Z"/><path class="cls-2" d="M82.64,327.52A20.66,20.66,0,0,1,62,306.86V227a20.66,20.66,0,1,1,41.32,0v79.82A20.66,20.66,0,0,1,82.64,327.52Z"/><path class="cls-2" d="M291,278.34c-11.2.4-19.91,9.94-19.91,21.14v3c0,20.25-16,37.24-36.24,37.65-21.44.44-39.7-16.7-39.7-37V245.4h11.27c11.21,0,20.75-8.71,21.15-19.91a20.66,20.66,0,0,0-20.65-21.41H195.17V139c0-6.18-6.09-9.4-10.69-9.4s-10,2.67-10.56,7.28V137a91.64,91.64,0,0,1-20.07,46.51v20.61H150.6c-11.21,0-20.75,8.71-21.15,19.91A20.67,20.67,0,0,0,150.1,245.4h3.74v57.73c0,21,8.6,40.79,24.2,55.73a80.67,80.67,0,0,0,56.5,22.64c43.26-.25,77.9-36.1,77.9-79.36V299A20.66,20.66,0,0,0,291,278.34Z"/><path class="cls-2" d="M395.58,152a74.65,74.65,0,0,0-51.83-21A72.08,72.08,0,0,0,308.94,140a20.66,20.66,0,0,0-37.77,11.59v87a20.66,20.66,0,1,0,41.32,0V203.62a31.3,31.3,0,0,1,31.26-31.25c17.84,0,32.91,14.31,32.91,31.25V305.53a20.66,20.66,0,0,0,41.32,0V203.62A71.07,71.07,0,0,0,395.58,152Z"/><circle class="cls-2" cx="82.64" cy="125.17" r="58.61"/></svg>