<svg id="My_ITN" data-name="My ITN" xmlns="http://www.w3.org/2000/svg" viewBox="0 0 512 512"><defs><style>.cls-1{fill:#f33;}.cls-2{fill:#09438f;}</style></defs><g id="BUILD"><path class="cls-1" d="M256,0A254.83,254.83,0,0,0,118,40.4q2.35,1.65,4.61,3.43A230.76,230.76,0,0,1,239.79,12c128,0,231.76,103.77,231.76,231.77S367.79,475.57,239.79,475.57,8,371.81,8,243.81a232.46,232.46,0,0,1,7.3-57.94q-2.33-1.67-4.53-3.48A256,256,0,0,0,0,256C0,397.39,114.63,512,256,512S512,397.39,512,256,397.37,0,256,0Z"/><path class="cls-2" d="M67.21,333.88a22.5,22.5,0,0,1-22.5-22.5V224.47a22.5,22.5,0,0,1,45,0v86.91A22.5,22.5,0,0,1,67.21,333.88Z"/><path class="cls-2" d="M294.14,280.32c-12.2.44-21.68,10.83-21.68,23v3.31c0,22-17.43,40.55-39.48,41-23.33.48-43.22-18.19-43.22-40.34V244.46H202c12.2,0,22.59-9.49,23-21.68a22.5,22.5,0,0,0-22.49-23.32H189.76V128.6c0-6.73-6.63-10.23-11.65-10.23s-10.86,2.9-11.49,7.92l0,.08A99.71,99.71,0,0,1,144.76,177v22.45h-3.54c-12.2,0-22.59,9.48-23,21.68a22.49,22.49,0,0,0,22.48,23.32h4.08v62.86c0,22.86,9.35,44.42,26.34,60.69a87.92,87.92,0,0,0,61.53,24.66c47.11-.28,84.83-39.32,84.83-86.43v-3.43A22.51,22.51,0,0,0,294.14,280.32Z"/><path class="cls-2" d="M408,142.74a81.31,81.31,0,0,0-56.44-22.82,78.57,78.57,0,0,0-37.91,9.71,22.5,22.5,0,0,0-41.13,12.62V237a22.5,22.5,0,0,0,45,0V199a34.08,34.08,0,0,1,34-34c19.42,0,35.83,15.59,35.83,34v111a22.5,22.5,0,0,0,45,0V199A77.36,77.36,0,0,0,408,142.74Z"/><circle class="cls-1" cx="67.21" cy="113.53" r="63.83"/></g></svg>