<svg width="42" height="40" viewBox="0 0 42 40" fill="none" xmlns="http://www.w3.org/2000/svg">
<path d="M10 5.33333C10 2.9401 11.9401 1 14.3333 1H29C29.0549 1 29.1076 1.02182 29.1464 1.06066L39.9393 11.8536C39.9782 11.8924 40 11.9451 40 12V34.6667C40 37.0599 38.0599 39 35.6667 39H14.3333C11.9401 39 10 37.0599 10 34.6667V5.33333Z" stroke="#F5F5F5" stroke-width="2"/>
<path d="M29 0.500122V6.66679C29 9.61231 31.3878 12.0001 34.3333 12.0001H40.5" stroke="#F5F5F5" stroke-width="2"/>
<path d="M0 18C0 16.5273 1.19391 15.3334 2.66667 15.3334H29.3333C30.8061 15.3334 32 16.5273 32 18V34C32 35.4728 30.8061 36.6667 29.3333 36.6667H2.66667C1.19391 36.6667 0 35.4728 0 34V18Z" fill="#068CCD"/>
<path d="M6.38266 31.1736C6.04043 31.1736 5.70488 31.1158 5.37599 31.0002C5.05155 30.8847 4.75599 30.7136 4.48932 30.4869L5.52932 29.2336C5.6271 29.3136 5.7471 29.3869 5.88932 29.4536C6.03155 29.5158 6.19599 29.5469 6.38266 29.5469C6.6271 29.5469 6.84932 29.4847 7.04932 29.3602C7.24932 29.2314 7.40932 29.0647 7.52932 28.8602C7.65377 28.6514 7.71599 28.4247 7.71599 28.1802V21.6669H9.34266V28.1802C9.34266 28.7269 9.20932 29.2269 8.94266 29.6802C8.67599 30.1291 8.31821 30.4914 7.86932 30.7669C7.42043 31.038 6.92488 31.1736 6.38266 31.1736ZM10.9471 31.0002V21.6669H14.2805C14.7871 21.6669 15.2449 21.7936 15.6538 22.0469C16.0671 22.3002 16.3938 22.6402 16.6338 23.0669C16.8738 23.4936 16.9938 23.9625 16.9938 24.4736C16.9938 24.998 16.8694 25.4736 16.6205 25.9002C16.376 26.3225 16.0471 26.6602 15.6338 26.9136C15.2205 27.1625 14.7694 27.2869 14.2805 27.2869H12.5738V31.0002H10.9471ZM12.5738 25.6602H14.1071C14.3382 25.6602 14.5494 25.6025 14.7405 25.4869C14.9316 25.3714 15.0827 25.2158 15.1938 25.0202C15.3094 24.8247 15.3671 24.6069 15.3671 24.3669C15.3671 24.1225 15.3094 23.9025 15.1938 23.7069C15.0827 23.5114 14.9316 23.3558 14.7405 23.2402C14.5494 23.1247 14.3382 23.0669 14.1071 23.0669H12.5738V25.6602ZM22.6499 31.1736C22.0011 31.1736 21.3966 31.0469 20.8366 30.7936C20.2811 30.5402 19.7966 30.1914 19.3833 29.7469C18.9699 29.298 18.6455 28.7825 18.4099 28.2002C18.1788 27.6136 18.0633 26.9869 18.0633 26.3202C18.0633 25.618 18.1877 24.9736 18.4366 24.3869C18.6899 23.8002 19.0344 23.2914 19.4699 22.8602C19.9055 22.4291 20.3988 22.0958 20.9499 21.8602C21.5055 21.6247 22.0833 21.5069 22.6833 21.5069C23.3544 21.5069 24.0055 21.6647 24.6366 21.9802C25.2722 22.2914 25.8322 22.7736 26.3166 23.4269L24.8633 24.2069C24.5655 23.8425 24.2233 23.5714 23.8366 23.3936C23.4544 23.2114 23.0633 23.1202 22.6633 23.1202C22.2722 23.1202 21.8966 23.2002 21.5366 23.3602C21.1811 23.5202 20.8633 23.7469 20.5833 24.0402C20.3077 24.3291 20.0899 24.6714 19.9299 25.0669C19.7699 25.458 19.6899 25.8869 19.6899 26.3536C19.6899 26.7936 19.7677 27.2091 19.9233 27.6002C20.0788 27.9869 20.2922 28.3269 20.5633 28.6202C20.8388 28.9091 21.1566 29.1358 21.5166 29.3002C21.8766 29.4647 22.2633 29.5469 22.6766 29.5469C22.9522 29.5469 23.2211 29.5047 23.4833 29.4202C23.7499 29.3314 23.9988 29.2047 24.2299 29.0402C24.4655 28.8758 24.6744 28.6758 24.8566 28.4402C25.0433 28.2047 25.1988 27.938 25.3233 27.6402H23.6233V26.2202H27.2366C27.2544 26.9002 27.1477 27.538 26.9166 28.1336C26.6855 28.7291 26.3588 29.2558 25.9366 29.7136C25.5144 30.1714 25.0233 30.5291 24.4633 30.7869C23.9033 31.0447 23.2988 31.1736 22.6499 31.1736Z" fill="#F5F5F5"/>
</svg>
