<svg width="42" height="40" viewBox="0 0 42 40" fill="none" xmlns="http://www.w3.org/2000/svg">
<path d="M10 5.33333C10 2.9401 11.9401 1 14.3333 1H29C29.0549 1 29.1076 1.02182 29.1464 1.06066L39.9393 11.8536C39.9782 11.8924 40 11.9451 40 12V34.6667C40 37.0599 38.0599 39 35.6667 39H14.3333C11.9401 39 10 37.0599 10 34.6667V5.33333Z" stroke="#F5F5F5" stroke-width="2"/>
<path d="M29 0.500122V6.66679C29 9.61231 31.3878 12.0001 34.3333 12.0001H40.5" stroke="#F5F5F5" stroke-width="2"/>
<path d="M0.5 18C0.5 16.5273 1.69391 15.3334 3.16667 15.3334H28.8333C30.3061 15.3334 31.5 16.5273 31.5 18V34C31.5 35.4728 30.3061 36.6667 28.8333 36.6667H3.16667C1.69391 36.6667 0.5 35.4728 0.5 34V18Z" fill="#CC3436"/>
<path d="M5.52396 31V21.6667H8.85729C9.36396 21.6667 9.82174 21.7933 10.2306 22.0467C10.644 22.3 10.9706 22.64 11.2106 23.0667C11.4506 23.4933 11.5706 23.9622 11.5706 24.4733C11.5706 24.9978 11.4462 25.4733 11.1973 25.9C10.9528 26.3222 10.624 26.66 10.2106 26.9133C9.79729 27.1622 9.34618 27.2867 8.85729 27.2867H7.15063V31H5.52396ZM7.15063 25.66H8.68396C8.91507 25.66 9.12618 25.6022 9.31729 25.4867C9.5084 25.3711 9.65951 25.2156 9.77063 25.02C9.88618 24.8244 9.94396 24.6067 9.94396 24.3667C9.94396 24.1222 9.88618 23.9022 9.77063 23.7067C9.65951 23.5111 9.5084 23.3556 9.31729 23.24C9.12618 23.1244 8.91507 23.0667 8.68396 23.0667H7.15063V25.66ZM12.7896 31V21.6667H15.8829C16.5274 21.6667 17.1296 21.7889 17.6896 22.0333C18.254 22.2733 18.7496 22.6089 19.1763 23.04C19.6074 23.4667 19.9429 23.9622 20.1829 24.5267C20.4274 25.0867 20.5496 25.6889 20.5496 26.3333C20.5496 26.9778 20.4274 27.5822 20.1829 28.1467C19.9429 28.7067 19.6074 29.2022 19.1763 29.6333C18.7496 30.06 18.254 30.3956 17.6896 30.64C17.1296 30.88 16.5274 31 15.8829 31H12.7896ZM14.4163 29.3733H15.8829C16.2963 29.3733 16.6851 29.2956 17.0496 29.14C17.4185 28.98 17.7429 28.7622 18.0229 28.4867C18.3029 28.2067 18.5229 27.8844 18.6829 27.52C18.8429 27.1511 18.9229 26.7556 18.9229 26.3333C18.9229 25.9111 18.8429 25.5178 18.6829 25.1533C18.5229 24.7889 18.3029 24.4667 18.0229 24.1867C17.7429 23.9067 17.4207 23.6889 17.0563 23.5333C16.6918 23.3733 16.3007 23.2933 15.8829 23.2933H14.4163V29.3733ZM21.6307 31V21.6667H27.1441V23.2933H23.2574V25.1867H26.5041V26.8133H23.2574V31H21.6307Z" fill="#F5F5F5"/>
</svg>
