<svg width="43" height="40" viewBox="0 0 43 40" fill="none" xmlns="http://www.w3.org/2000/svg">
<path d="M11 5.33333C11 2.9401 12.9401 1 15.3333 1H30C30.0549 1 30.1076 1.02182 30.1464 1.06066L40.9393 11.8536C40.9782 11.8924 41 11.9451 41 12V34.6667C41 37.0599 39.0599 39 36.6667 39H15.3333C12.9401 39 11 37.0599 11 34.6667V5.33333Z" stroke="#F5F5F5" stroke-width="2"/>
<path d="M30 0.500122V6.66679C30 9.61231 32.3878 12.0001 35.3333 12.0001H41.5" stroke="#F5F5F5" stroke-width="2"/>
<path d="M0 18C0 16.5273 1.19391 15.3334 2.66667 15.3334H31.3333C32.8061 15.3334 34 16.5273 34 18V34C34 35.4728 32.8061 36.6667 31.3333 36.6667H2.66667C1.19391 36.6667 0 35.4728 0 34V18Z" fill="#42BC54"/>
<path d="M4.88047 31L8.2938 26.3067L4.92047 21.6667H6.92714L9.30047 24.9333L11.6805 21.6667H13.6871L10.3138 26.3067L13.7271 31H11.7071L9.30047 27.6933L6.90047 31H4.88047ZM15.0201 31V21.6667H16.6467V29.3733H20.5334V31H15.0201ZM25.3592 31.1733C24.8437 31.1733 24.3481 31.0933 23.8726 30.9333C23.4014 30.7689 22.9881 30.5356 22.6326 30.2333C22.277 29.9267 22.0214 29.56 21.8659 29.1333L23.3926 28.5733C23.4548 28.7511 23.5814 28.9133 23.7726 29.06C23.9637 29.2067 24.197 29.3244 24.4726 29.4133C24.7481 29.5022 25.0437 29.5467 25.3592 29.5467C25.6837 29.5467 25.9859 29.4978 26.2659 29.4C26.5503 29.2978 26.7792 29.1578 26.9526 28.98C27.1259 28.7978 27.2126 28.5867 27.2126 28.3467C27.2126 28.1022 27.1214 27.9022 26.9392 27.7467C26.757 27.5867 26.5237 27.46 26.2392 27.3667C25.9548 27.2733 25.6614 27.2022 25.3592 27.1533C24.697 27.0511 24.1037 26.8933 23.5792 26.68C23.0548 26.4667 22.6392 26.1711 22.3326 25.7933C22.0303 25.4156 21.8792 24.9267 21.8792 24.3267C21.8792 23.7622 22.0414 23.2689 22.3659 22.8467C22.6903 22.4244 23.117 22.0956 23.6459 21.86C24.1748 21.6244 24.7459 21.5067 25.3592 21.5067C25.8703 21.5067 26.3637 21.5867 26.8392 21.7467C27.3148 21.9067 27.7303 22.14 28.0859 22.4467C28.4459 22.7533 28.7037 23.1222 28.8592 23.5533L27.3259 24.1067C27.2637 23.9289 27.137 23.7667 26.9459 23.62C26.7548 23.4733 26.5214 23.3578 26.2459 23.2733C25.9703 23.1844 25.6748 23.14 25.3592 23.14C25.0437 23.1356 24.7437 23.1867 24.4592 23.2933C24.1792 23.3956 23.9503 23.5356 23.7726 23.7133C23.5948 23.8911 23.5059 24.0956 23.5059 24.3267C23.5059 24.6244 23.5881 24.8489 23.7526 25C23.9214 25.1511 24.1459 25.2622 24.4259 25.3333C24.7059 25.4 25.017 25.4622 25.3592 25.52C25.9814 25.6178 26.557 25.7822 27.0859 26.0133C27.6148 26.2444 28.0392 26.5533 28.3592 26.94C28.6792 27.3222 28.8392 27.7911 28.8392 28.3467C28.8392 28.9111 28.6792 29.4067 28.3592 29.8333C28.0392 30.2556 27.6148 30.5844 27.0859 30.82C26.557 31.0556 25.9814 31.1733 25.3592 31.1733Z" fill="#F5F5F5"/>
</svg>
